Coordinates
version=1
nRows=11
nColumns=42
inDegrees=yes

Units are S.I. units (second, meters, Newtons, ...)
If the header above contains a line with 'inDegrees', this indicates whether rotational values are in degrees (yes) or radians (no).

endheader
time	pelvis_tilt	pelvis_list	pelvis_rotation	pelvis_tx	pelvis_ty	pelvis_tz	hip_flexion_r	hip_adduction_r	hip_rotation_r	knee_angle_r	knee_adduction_r	knee_angle_r_beta	ankle_angle_r	subtalar_angle_r	mtp_angle_r	hip_flexion_l	hip_adduction_l	hip_rotation_l	knee_angle_l	knee_adduction_l	knee_angle_l_beta	ankle_angle_l	subtalar_angle_l	mtp_angle_l	lumbar_extension	lumbar_bending	lumbar_rotation	arm_flex_r	arm_add_r	arm_rot_r	elbow_flex_r	pro_sup_r	wrist_flex_r	wrist_dev_r	arm_flex_l	arm_add_l	arm_rot_l	elbow_flex_l	pro_sup_l	wrist_flex_l	wrist_dev_l
      1.20000000	     -2.26954912	      0.19275085	     -6.37347549	      0.00089309	      0.84490158	     -0.35009414	    -14.07897059	     -2.95669972	      4.69552413	     17.07617273	      9.90352928	      0.29803544	      6.60357325	     -1.56404846	     -7.56471690	     23.27635472	     -4.93765408	     -8.38082103	     11.57688864	     10.15550487	      0.20205482	      6.53368273	     -3.64846700	     -7.56471690	     -4.09114363	     -2.07114499	     11.81379873	     12.35196212	    -19.80712900	     11.42931938	     41.48835939	     90.00000001	      0.00000000	      0.00000000	     -7.60141165	    -11.18971083	    -22.45284897	     33.91961114	     90.00000001	      0.00000000	      0.00000000
      1.21000000	     -2.14439286	      0.57626227	     -6.36875052	      0.01400142	      0.84550338	     -0.35078799	    -13.57787188	     -3.57653948	      4.38259577	     19.79954807	     10.11312072	      0.34556730	      4.57343927	     -2.57763964	     -7.56314394	     22.73161442	     -4.29875143	     -7.76054164	     12.33821296	     10.19037964	      0.21534244	      6.26569377	     -4.11190358	     -7.56314394	     -4.07770435	     -2.57806288	     11.77050760	     11.96115121	    -19.61209447	     11.10877639	     41.37281411	     90.00000001	      0.00000000	      0.00000000	     -7.62163979	    -11.35648829	    -22.55285035	     33.76772432	     90.00000001	      0.00000000	      0.00000000
      1.22000000	     -2.31312149	      1.08438785	     -6.29804114	      0.02692289	      0.84592237	     -0.35169749	    -12.46346321	     -4.35819579	      3.93216902	     23.01600501	     10.45530081	      0.40170507	      2.54332233	     -3.93340967	     -7.55963871	     22.42930180	     -3.46788457	     -6.59631976	     12.85732626	     10.20742823	      0.22440268	      5.40111940	     -5.65781426	     -7.55963871	     -3.72812058	     -3.17354766	     11.64544527	     11.48162368	    -19.31291310	     10.59128386	     41.17133682	     90.00000001	      0.00000000	      0.00000000	     -7.60207562	    -11.53521766	    -22.64665491	     33.52747743	     90.00000001	      0.00000000	      0.00000000
      1.23000000	     -1.99771628	      1.42849486	     -6.24783381	      0.04016448	      0.84701026	     -0.35236738	    -11.84231952	     -4.88735817	      3.26013065	     26.23034506	     10.38296022	      0.45780589	     -0.02586354	     -5.11754775	     -7.55821696	     21.52861787	     -2.91866455	     -5.95255892	     13.47180643	     10.40876379	      0.23512738	      5.27747869	     -6.06104834	     -7.55821696	     -3.93712021	     -3.65066827	     11.47241281	     11.05477391	    -19.09982027	     10.36558527	     40.99885665	     90.00000001	      0.00000000	      0.00000000	     -7.58811786	    -11.71121318	    -22.64507348	     33.44927655	     90.00000001	      0.00000000	      0.00000000
      1.24000000	     -1.89569507	      1.91228021	     -6.15945802	      0.05331876	      0.84791930	     -0.35322043	    -10.73161133	     -5.58603283	      2.45198795	     29.82959638	     10.28495818	      0.52062467	     -2.61330433	     -6.67937993	     -7.55674472	     20.80847872	     -2.18353545	     -5.20096043	     13.92489347	     10.52223804	      0.24303524	      5.00371951	     -6.63832242	     -7.55674472	     -3.88906954	     -4.24319804	     11.24673641	     10.55133320	    -18.83496606	     10.04001879	     40.74715741	     90.00000001	      0.00000000	      0.00000000	     -7.56905590	    -11.92620712	    -22.62098492	     33.33802225	     90.00000001	      0.00000000	      0.00000000
      1.25000000	     -2.15602031	      2.48893922	     -5.93035080	      0.06596041	      0.84854836	     -0.35438965	     -9.00585076	     -6.38676049	      1.80309386	     33.66417661	     10.32609834	      0.58755072	     -5.03541730	     -8.61462821	     -7.55171773	     20.31346535	     -1.31804853	     -3.37094770	     13.77741150	     10.84955059	      0.24046119	      3.68806660	     -9.53974185	     -7.55171773	     -3.48641707	     -4.87508181	     10.87730532	     10.04486800	    -18.49235160	      9.51425050	     40.40420250	     90.00000001	      0.00000000	      0.00000000	     -7.48618174	    -12.11502288	    -22.53364945	     33.16480711	     90.00000001	      0.00000000	      0.00000000
      1.26000000	     -2.04733046	      3.05130864	     -5.73743993	      0.07887767	      0.84960464	     -0.35541243	     -7.64736101	     -7.13760865	      0.95660609	     37.38881137	      9.98266074	      0.65255786	     -7.48051190	    -10.35808015	     -7.54938111	     19.42554157	     -0.48588555	     -2.60990053	     13.84944949	     10.97543957	      0.24171849	      3.57475733	     -9.96038437	     -7.54938111	     -3.48969446	     -5.53713408	     10.49493015	      9.54944562	    -18.20667649	      9.24142331	     40.07593949	     90.00000001	      0.00000000	      0.00000000	     -7.39623160	    -12.33007379	    -22.41552255	     33.13896233	     90.00000001	      0.00000000	      0.00000000
      1.27000000	     -1.80233451	      3.47936604	     -5.65783326	      0.09186365	      0.85086364	     -0.35612464	     -6.34823156	     -7.67456163	      0.10724130	     41.00743302	      9.30256512	      0.71571472	     -9.65214887	    -11.90051423	     -7.54822262	     18.26184583	      0.09151212	     -2.07981109	     13.78121334	     11.20128999	      0.24052755	      3.83339912	    -10.05161704	     -7.54822262	     -3.63259159	     -6.06303802	     10.16574430	      9.06251222	    -17.95081804	      9.05766392	     39.69668255	     90.00000001	      0.00000000	      0.00000000	     -7.30690078	    -12.53203996	    -22.31444166	     33.08738937	     90.00000001	      0.00000000	      0.00000000
      1.28000000	     -1.76241253	      4.02663219	     -5.46227893	      0.10450845	      0.85192146	     -0.35722099	     -4.69591015	     -8.32982916	     -0.62423027	     44.60903748	      8.64363389	      0.77857458	    -11.56177633	    -13.68607037	     -7.54729294	     17.24277945	      0.85335798	     -1.42627390	     13.43478587	     11.39095265	      0.23448125	      3.91481027	    -10.34108715	     -7.54729294	     -3.59489142	     -6.65583083	      9.70049135	      8.58715715	    -17.67404480	      8.80569262	     39.28803183	     90.00000001	      0.00000000	      0.00000000	     -7.17831819	    -12.69995818	    -22.14601853	     33.07554703	     90.00000001	      0.00000000	      0.00000000
      1.29000000	     -1.70384480	      4.48926366	     -5.26837531	      0.11700048	      0.85304381	     -0.35817586	     -3.02214866	     -8.85168288	     -1.20581029	     47.98385234	      7.94650292	      0.83747621	    -12.87479047	    -15.23105239	     -7.54643422	     16.10997431	      1.49930175	     -0.84218112	     12.93608754	     11.56432715	      0.22577732	      4.09335535	    -10.57758809	     -7.54643422	     -3.59991107	     -7.16912750	      9.23010608	      8.10845850	    -17.39425980	      8.59157968	     38.82233287	     90.00000001	      0.00000000	      0.00000000	     -7.00954779	    -12.88234622	    -21.95932285	     33.07089426	     90.00000001	      0.00000000	      0.00000000
      1.30000000	     -1.82834932	      5.07727268	     -5.00314831	      0.12914607	      0.85395786	     -0.35940701	     -1.02949617	     -9.52917703	     -1.63444388	     51.26688807	      7.33927580	      0.89477599	    -13.51529437	    -16.26294955	     -7.54303140	     15.07449626	      2.32856687	      0.08668566	     12.12880714	     11.69535918	      0.21168762	      3.70498470	    -11.74967374	     -7.54303140	     -3.43661906	     -7.76362551	      8.67274196	      7.64159152	    -17.08771557	      8.22686442	     38.34045467	     90.00000001	      0.00000000	      0.00000000	     -6.82409228	    -13.06073471	    -21.64788627	     33.09180038	     90.00000001	      0.00000000	      0.00000000
